<?xml version="1.0" encoding="utf-8"?>
<!-- Generator: Adobe Illustrator 24.1.2, SVG Export Plug-In . SVG Version: 6.00 Build 0)  -->
<svg version="1.1"
	 id="svg2" xmlns:cc="http://creativecommons.org/ns#" xmlns:dc="http://purl.org/dc/elements/1.1/" xmlns:inkscape="http://www.inkscape.org/namespaces/inkscape" xmlns:rdf="http://www.w3.org/1999/02/22-rdf-syntax-ns#" xmlns:sodipodi="http://sodipodi.sourceforge.net/DTD/sodipodi-0.dtd" xmlns:svg="http://www.w3.org/2000/svg"
	 xmlns="http://www.w3.org/2000/svg" xmlns:xlink="http://www.w3.org/1999/xlink" x="0px" y="0px" viewBox="0 0 1024 1024"
	 style="enable-background:new 0 0 1024 1024;" xml:space="preserve">
<style type="text/css">
	.st0{fill:#4EA932;}
	.st1{fill:#FFFFFF;}
</style>
<sodipodi:namedview  bordercolor="#666666" borderlayer="false" borderopacity="1" gridtolerance="10" guidetolerance="10" id="namedview6" inkscape:current-layer="svg2" inkscape:cx="359.1364" inkscape:cy="564.5118" inkscape:pageopacity="0.00784314" inkscape:pageshadow="2" inkscape:window-height="1056" inkscape:window-maximized="1" inkscape:window-width="1855" inkscape:window-x="65" inkscape:window-y="24" inkscape:zoom="0.65186406" objecttolerance="10" pagecolor="#ffffff" showborder="true" showgrid="false" showguides="true">
	</sodipodi:namedview>
<g>
	<g>
		<g>
			
				<image style="overflow:visible;opacity:0.26;" width="750" height="831" xlink:href="4E3E8C43.png"  transform="matrix(1 0 0 1 137 102)">
			</image>
			<g>
				<path class="st0" d="M868.2,363.3c-5.1-46.7-12.4-93.7-29.7-136.5c-17.2-42.8-45.4-81.6-83.2-101.5
					c-36.4-19.2-78.2-19.4-118.4-19.3c-41.6,0.1-83.3,0.2-124.9,0.3c-41.6-0.1-83.3-0.2-124.9-0.3c-40.2-0.1-81.9,0.2-118.4,19.3
					c-37.8,19.9-66,58.6-83.2,101.5c-17.2,42.8-24.6,89.8-29.7,136.5c-12.9,118.9-12.1,239.6,2.5,358.2
					c7.3,59.3,21.8,124.6,66.7,156.4c21.3,15.1,46.8,20.4,71.7,24.6c70,11.7,142.5,16,215.4,15.5c72.8,0.6,145.4-3.7,215.4-15.5
					c24.9-4.2,50.4-9.5,71.7-24.6c45-31.8,59.5-97.2,66.7-156.4C880.3,602.9,881.1,482.2,868.2,363.3z"/>
			</g>
		</g>
		<g>
			<path class="st1" d="M316.2,252.8c-7.8-15.1-23.7,3.9-23.7,3.9v93.5l31.4,22.3C323.9,372.5,325.8,271.6,316.2,252.8L316.2,252.8z
				"/>
			<path class="st1" d="M356.1,271.4l-11.3,512.7h122.4v-63.3c0,0-39.1,17.3-50,9.5c-45-32.1-29.3-180.3-6.5-211.9
				c8.1-11.3,33,0,33,0l4.1-69.1c0,0-35.1,5.5-42.8-2c-26.2-25.3-9.8-122.9,5.3-145.5c6.2-9.2,34.2-4.3,34.2-4.3l-4.1-45.3
				L356.1,271.4L356.1,271.4z"/>
			<path class="st1" d="M499.5,273.9l-3.9,510.4h180.7l7.8-77.4c0,0-120.8,53.5-132.4,11.7c-10.8-39-13.3-447.4-13.3-447.4
				L499.5,273.9L499.5,273.9z"/>
			<path class="st1" d="M586.6,277.5l7.1,394.1l102.1,1.5v-54.4c0,0-46.7,8.5-57.3-1.5c-12.3-11.7-14.6-111.5-1.5-122.3
				c6.6-5.4,35.9,1.9,35.9,1.9l-1.9-62.4c0,0-33.5,7.1-40.8,0c-14.5-14.2-19.3-99.3-5.7-111c7.3-6.3,38.7,0,38.7,0l11.7-57.6
				L586.6,277.5L586.6,277.5z"/>
			<path class="st1" d="M704,273.3v92.3l16.3,3.4c0,0,19.5-88.2,7.1-105.5C722.8,257,704,273.3,704,273.3L704,273.3z"/>
		</g>
	</g>
</g>
</svg>
