<?xml version="1.0" encoding="utf-8"?>
<!-- Generator: Adobe Illustrator 24.1.2, SVG Export Plug-In . SVG Version: 6.00 Build 0)  -->
<svg version="1.1"
	 id="svg2" xmlns:cc="http://creativecommons.org/ns#" xmlns:dc="http://purl.org/dc/elements/1.1/" xmlns:rdf="http://www.w3.org/1999/02/22-rdf-syntax-ns#" xmlns:svg="http://www.w3.org/2000/svg"
	 xmlns="http://www.w3.org/2000/svg" xmlns:xlink="http://www.w3.org/1999/xlink" x="0px" y="0px" viewBox="0 0 480 800"
	 style="enable-background:new 0 0 480 800;" xml:space="preserve">
<style type="text/css">
	.st0{clip-path:url(#SVGID_2_);fill:#FFEB3C;}
	.st1{clip-path:url(#SVGID_4_);}
	.st2{fill:#1D1D1B;}
	.st3{fill:#E5A7C8;}
	.st4{fill:#F8C824;}
	.st5{fill:#F9E265;}
	.st6{fill:#B1B1B1;}
	.st7{fill:#CABA9F;}
	.st8{fill:#8DC053;}
	.st9{fill:#388C35;}
	.st10{fill:#4EA933;}
	.st11{fill:#82CAEE;}
	.st12{fill:#868686;}
	.st13{fill:#FFFFFF;}
	.st14{fill:#575756;}
	.st15{clip-path:url(#SVGID_6_);fill:#4EA932;}
</style>
<g>
	<g>
		<defs>
			<rect id="SVGID_1_" x="-5.6" width="491.2" height="808.5"/>
		</defs>
		<clipPath id="SVGID_2_">
			<use xlink:href="#SVGID_1_"  style="overflow:visible;"/>
		</clipPath>
		<rect id="rect4167" x="-16.7" y="-18" class="st0" width="502.3" height="826.5"/>
	</g>
	<g>
		<defs>
			<rect id="SVGID_3_" x="-5.6" width="491.2" height="808.5"/>
		</defs>
		<clipPath id="SVGID_4_">
			<use xlink:href="#SVGID_3_"  style="overflow:visible;"/>
		</clipPath>
		<g class="st1">
			<g>
				<path class="st2" d="M21.8,18.3c0,0,14.6,13.9,16.8,13.5s6.8-9.8,6.8-9.8s4-11.8,0.3-15.9s-22.9,8-22.9,8L21.8,18.3z"/>
				<path class="st3" d="M-236.5,292.5c0,0-28.2,18.4-26.7,25.5c1.5,7.2,26.1,44.9,33.6,42.7c7.5-2.2,22.9-21.9,22.9-21.9
					L-236.5,292.5z"/>
				<path class="st4" d="M-234.6,286.4c0,0,160.4-186,193.7-222S-7.6,28.5-7.6,28.5S11,37,5.4,47.3S-217.8,301-230.4,307
					C-243,313-234.6,286.4-234.6,286.4z"/>
				<path class="st5" d="M-219.5,298c0,0,160.4-186,193.7-222S7.5,40,7.5,40s18.6,8.5,13.1,18.8s-223.2,253.7-235.8,259.7
					C-227.9,324.6-219.5,298-219.5,298z"/>
				<path class="st4" d="M31.8,67.7c0,0-166.3,195.8-199.6,231.8s-33.3,36-33.3,36s-18.6-8.5-13.1-18.8
					C-208.6,306.2,9,62.8,21.6,56.8S31.8,67.7,31.8,67.7z"/>
				<path class="st6" d="M-250.4,300.4c0,0,10.2-17.4,15.8-14c5.6,3.5,41.5,40.2,37.5,44.6s-8.6,15.9-13.2,14.6
					C-214.8,344.3-250.4,300.4-250.4,300.4z"/>
				<path class="st7" d="M-7.6,28.5l30.4-14.4c0,0,2.8-0.3,6,4.2s12.8,10.2,12.8,10.2L33,64c0,0-0.4,8-6.3,3.1s0.8-9.9-7.2-10.1
					c-8-0.2-12.2,1.5-11.1-5.2s2.8-10.6-2.9-9.6c-5.7,0.9-15.3,3.1-11-3.6s-1.4-2.8-2.6-4.3C-9.3,32.8-7.6,28.5-7.6,28.5z"/>
			</g>
			<g>
				<path class="st8" d="M42.5,571c-52,32.3-68.7,32.3-140.9-26s-77.2-135.6-63.3-150.7c13.8-15.1,22-11.2,22-11.2
					s-40.3-45-26.8-80.2s35.1-28.3,35.1-28.3s-20.7-33.2,18.6-85.3s71.9-50.8,78.9-40.8c6.9,10,33.5,138.8,50.6,172.3
					s71.7,91.2,76,115.3C100.8,483.3,94.5,538.7,42.5,571z"/>
				<path class="st9" d="M4.8,566c0,0-86.4-31.1-87.4-46.1s25.1-24.3,25.1-24.3s-20-11.7-10-30.4c10-18.7,35.4-24.7,35.4-24.7
					s-6.3-26.1,4.5-36.2s66.1,5.1,67.8,11.9c1.8,6.8,4.7,6.5-10.9,3.2s-46.5-10.3-51.5,1.9c-4.9,12.1,4.3,20.7,12.5,28
					s-2.5,8.8-16.7,8.7s-37.3-0.5-29.9,15.6s27.2,30.4,15,35.1c-12.2,4.7-24.5-4.5-28.7,4.3c-4.2,8.8,78.7,48.2,80,50.9
					S4.8,566,4.8,566z"/>
				<path class="st9" d="M-7.9,318.1c0,0-15.7-28.7-27.5-37.8s-27.5-17-33.8-3.7s-3.7,32.3-1.8,38.8c1.9,6.5,3.5,8.9,3.5,8.9
					S-82.3,301-91.9,317s11.2,71.4,19.2,75.8c7.9,4.3,7.6-5.8,3.5-12.2c-4.1-6.4-15.3-41.2-11.1-45.3s6.8-1.9,25.2,15.8
					s32,25.3,23.7,6.3s-31-49.7-26.5-63.7s11.2-9.7,26,8.5s14.1,26.2,22.2,25C-1.7,326-7.9,318.1-7.9,318.1z"/>
				<path class="st9" d="M-91.2,256.2c-1-2.3-4.8-50,17.3-59.5s33.9,23.9,37.7,31.2S-34,255-40,247.8c-6-7.3-11.2-31.4-18-35.8
					c-6.8-4.4-15.4-5.1-19,4.9c-3.6,9.9-4.7,34.2-5.8,38.8C-83.7,260.4-90.3,258.2-91.2,256.2z"/>
			</g>
			<path class="st4" d="M273.1,604.8c-9.1-4.4-17.9-3.3-14.7,7.5c4.7,16.1,30.6,29.5,42.4,35.1c13.2,6.4,100.7,61.7,114.6,68.6
				c19.5,9.6,25.9,10.6,29.9,3.4c5.3-9.7-26.2-33.7-46.4-48.2C378.6,656.8,291.6,613.7,273.1,604.8z"/>
			<path class="st8" d="M299.7,621.9c-11.2-6.7-42.5-26.5-51.7-14.6c-6,7.8-24.3,26.1-10.5,41.7c20.7,23.4,48.8,65.4,97,114.5
				c17.4,17.7,32.4,16.4,35.3,14.1c7.6-6.2-0.6-14.9-14.6-34.7s-22.8-32.6-17.7-31.4c5.1,1.2,35.8,37.1,70.2,61
				c19.3,13.5,27.5,8,32.1,4.6c6.5-4.9-2.3-21-19.8-39.9c-14.7-15.8-35.7-36.2-41.4-44C377.4,691.7,312.3,629.5,299.7,621.9z"/>
			<path class="st10" d="M338.3,465.5c-14.5-19-17.7-83.4-54.3-129.4c-4.5-16.7,1.5-51.6,12.5-86.2c11.7-36.9,33.1-127.4,4.3-162.7
				c-61.2-75-144.5-65-164.2-63.2c-37.8,3.4-99.8,41.7-111,91.5c-11.2,49.7,1.2,169.1,1.2,211.3c0,3.9-0.4,8.3-1.2,13.1
				c0.1-0.1,0.3-0.2,0.4-0.3c-28.6,35.9-73.9,97.6-78.1,156.5c-5.9,82.6,6.5,114.7,33.7,154.8s86.1,77.6,128,84.3s60.1,5.1,60.1,5.1
				s67.1-3.7,129.8-30.8c62.7-27.2,87-83.8,89.5-103.8C399.7,520.3,358.5,491.8,338.3,465.5z"/>
			<path class="st11" d="M296.8,163.8c-4.2,1-22.7-30-36.3-53.3s-48.1-45.5-53-61.8s8.9-20,21.1-15c12.2,5,48.8,23.2,69.5,45.8
				s12.9,58.4,12.9,58.4l-4.2,27.8L296.8,163.8z"/>
			<path class="st8" d="M51.4,150.5c2.8,5.3-0.4,4.7,0.5,7.9s1.5,8.7-2.6,10.8s-8.5,7.7-10.4-2.9s-3.8-16.3,2-18.2
				C46.7,146.2,51.4,150.5,51.4,150.5z"/>
			<path class="st8" d="M41.2,248c-0.8-6,2-4.3,2.2-7.6s1.5-8.7,6.1-9.3s10.5-4.4,8.8,6.2c-1.7,10.6-1.9,16.6-8,16.5
				S41.2,248,41.2,248z"/>
			<path class="st8" d="M51.4,278.5c2.8,5.3-0.4,4.7,0.5,7.9c0.9,3.1,1.5,8.7-2.6,10.8s-8.5,7.7-10.4-2.9s-3.8-16.3,2-18.2
				S51.4,278.5,51.4,278.5z"/>
			<path class="st8" d="M46.4,195.4c-2.9-3.5-10.7-5.6-11.2-1.2c-0.5,4.4,3.4,10.3,1.5,14.2c-1.9,3.8,9.6,9.6,10,5.6
				c0.4-4,2.9-7.9,1.1-9.8C45.9,202.3,46.4,195.4,46.4,195.4z"/>
			<path class="st8" d="M64.3,207.9c2.4-3.8,9.8-7,10.9-2.8c1.1,4.3-1.9,10.7,0.5,14.2s-8.1,10.9-9.1,7s-4-7.4-2.4-9.6
				C65.7,214.7,64.3,207.9,64.3,207.9z"/>
			<path class="st8" d="M69.2,255.5c-1.3-2.8-6.2-5.6-7.3-2.7s0.5,7.5-1.4,9.7s4.8,8.1,5.7,5.5c1-2.6,3.3-4.8,2.4-6.4
				C67.7,260,69.2,255.5,69.2,255.5z"/>
			<path class="st8" d="M34.9,261c-1.3-2.8-6.2-5.6-7.3-2.7c-1.1,2.8,0.5,7.5-1.4,9.7s4.8,8.1,5.7,5.5c1-2.6,3.3-4.8,2.4-6.4
				S34.9,261,34.9,261z"/>
			<path class="st8" d="M43.5,405.9c-4.6,7.5-0.2,7.1-1.9,11.7c-1.7,4.5-3.3,12.8,1.9,16.5c5.2,3.8,10.4,12.8,14.6-2.6
				s7.6-23.7,0-27.5C50.5,400.3,43.5,405.9,43.5,405.9z"/>
			<path class="st8" d="M26.1,477.1c3.4-8.4-0.3-7.8,0.8-12.8s2-14.1-2.7-18s-9.7-13.4-12.2,3.6s-4.9,26.2,1.8,29.9
				S26.1,477.1,26.1,477.1z"/>
			<path class="st8" d="M31.6,531.2c1.7-7.9-2.1-6.2-1.9-10.6s-1-12.1-6.7-13.7s-13-7.8-11.9,6.8s0.7,22.8,8.5,23.7
				S31.6,531.2,31.6,531.2z"/>
			<path class="st8" d="M42.8,615.8c0.2-9.8-3.6-7.4-4.4-12.8c-0.8-5.4-3.7-14.7-10.3-16.2s-15.9-8.5-11.6,9.3
				c4.3,17.7,5.5,27.8,14.3,28.2S42.8,615.8,42.8,615.8z"/>
			<path class="st8" d="M99.3,523.1c-5.1-3.4-16.3-3.2-15.2,2.7s8.5,12.3,7.4,18.1s16.3,9,15.3,3.5c-1-5.4,0.7-11.5-2.4-13.3
				S99.3,523.1,99.3,523.1z"/>
			<path class="st8" d="M61,481.1c0,0-11.7,4.7-7.4,17.3s12.8,11,15.3,8s-2.5-13-3-16.1c-0.5-3,0.5-6.5-0.5-9.3
				C64.4,478.3,61,481.1,61,481.1z"/>
			<path class="st8" d="M100.5,577.5c0,0-10.9,12.3,1.4,24.5s21.4,5.5,22.6,0.5c1.2-5-10.5-13.8-12.8-17.1
				c-2.3-3.2-3.2-7.9-5.9-10.5C102.9,572.2,100.5,577.5,100.5,577.5z"/>
			<path class="st8" d="M51.3,550.3c0,7.3-6,8.8,0,13.8s21,7,18.3-2c-2.7-9-8.7-11.5-13.7-16.6C50.8,540.5,51.3,550.3,51.3,550.3z"
				/>
			<path class="st8" d="M185.3,621.3c-3.5-6.4,1.1-10.6-6.6-12.1c-7.7-1.5-21.8,3.8-15.1,10.5s13.2,6,20,8
				C190.4,629.6,185.3,621.3,185.3,621.3z"/>
			<path class="st8" d="M66.4,618.4c0,0-7.1,13.8,7.7,25.2s21.7,3.6,21.6-1.7c-0.2-5.3-13.6-13.2-16.6-16.4
				c-3.1-3.1-5.1-7.8-8.4-10.3C67.3,612.8,66.4,618.4,66.4,618.4z"/>
			<path class="st8" d="M206.1,611.1c0,0-3.6,15.1,13.5,22.6c17.1,7.6,22-1.7,20.5-6.7c-1.4-5.1-16.3-9.6-20-11.9
				c-3.7-2.3-6.8-6.4-10.6-8C205.6,605.5,206.1,611.1,206.1,611.1z"/>
			<path class="st8" d="M116.5,632.1c0,0,7.5,12.8,17.6,20.3c10,7.5,25.6,6,12-7.5c-13.5-13.5-21.6-21-25.6-20.5
				S116.5,632.1,116.5,632.1z"/>
			<path class="st8" d="M113.2,689.9c-4-8.1-6-4.9-9-9.1c-3-4.2-9.2-10.9-15.2-9.9s-16.5-1.7-5.4,11.5s16.4,21.1,23.6,18.5
				S113.2,689.9,113.2,689.9z"/>
			<path class="st8" d="M156.9,563.2c-4-8.1-6-4.9-9-9.1c-3-4.2-9.2-10.9-15.2-9.9s-16.5-1.7-5.4,11.5s16.4,21.1,23.6,18.5
				S156.9,563.2,156.9,563.2z"/>
			<path class="st8" d="M138.9,677.3c0,0-2.6,9.4,7.1,12.8c9.8,3.3,12.9-2.6,12.2-5.6s-9.2-4.7-11.3-5.8s-3.7-3.4-5.9-4.1
				C138.8,673.9,138.9,677.3,138.9,677.3z"/>
			<path class="st8" d="M187.4,651.4c0,0-2.6,9.4,7.1,12.8c9.8,3.3,12.9-2.6,12.2-5.6s-9.2-4.7-11.3-5.8s-3.7-3.4-5.9-4.1
				S187.4,651.4,187.4,651.4z"/>
			<path class="st8" d="M89.1,471c-4.6,5.7-10.2,3-8.7,10.7s11.9,18.7,15.5,10s0.5-14.5-0.2-21.5S89.1,471,89.1,471z"/>
			<path class="st4" d="M180.4,148c0,0-18-9.4-14.9-26.2s20.1-35.7,39.8-29.5s35.1,23.8,22.6,28.7c-12.5,4.9-11.3,0.5-25.5,7.5
				s-2.6,23.1-10.1,25.2C184.8,155.8,180.4,148,180.4,148z"/>
			<circle class="st2" cx="204.6" cy="135.2" r="17"/>
			<path class="st12" d="M232.8,736.3c-0.1,1.5-4.1,100.8-4.1,100.8s12.3,2.4,17.4,5c5.1,2.6,6.6,8.4,3.1,8.9s-10.2-3-11.3-0.8
				c-1.2,2.2-0.6,3.7,0.8,7.6c1.5,3.9,2.7,6.6-0.5,7.5s-6.8-6.5-9.6-9.7s-4.6-4.5-6.3-1.9c-1.7,2.5-2.8,8.3-7.9,10.1
				s-7.8-1.8-5.6-6.5s5.4-6.4,3.6-8.8c-1.7-2.4-1.5-0.5-7.6,1s-6-5.3-1.3-8.4c4.7-3.1,11.1-7.5,11.1-7.5l3.9-98.2L232.8,736.3z"/>
			<path class="st10" d="M238.5,737.1c-5.2-5.7,0.6-12.5,1.1-20c-1.2,0.2-17.1,1.3-25.5,1.3c0.9,4.6,1.7,10.9,0.6,14.4
				c-1.9,5.8-8.7,14.1-1.5,16.5s5.9-3.1,7.5,2c1.5,5.1,5.3,4.5,9.5-3.4c4.3-8,2.6,3.1,11.3,6C250,756.9,246,745.3,238.5,737.1z"/>
			<path class="st12" d="M99.8,729c-0.2,1.5-7.4,100.6-7.4,100.6s12.2,2.8,17.2,5.6s6.3,8.6,2.8,9c-3.4,0.4-10.1-3.3-11.3-1.2
				c-1.3,2.1-0.8,3.7,0.6,7.6c1.3,3.9,2.5,6.7-0.8,7.5c-3.2,0.8-6.6-6.7-9.3-10c-2.7-3.3-4.4-4.6-6.2-2.2c-1.8,2.5-3.1,8.2-8.2,9.9
				c-5.1,1.6-7.7-2.1-5.4-6.7c2.4-4.7,5.6-6.2,3.9-8.7s-1.5-0.5-7.6,0.7s-5.9-5.5-1-8.4s11.3-7.1,11.3-7.1l7.1-98L99.8,729z"/>
			<path class="st10" d="M80.7,707.9c0,0,0,0-0.7,6.7s-3.5,11.7-7.1,17.4s6.3,4.4,10.2,3.3c3.9-1.1,2.3,7,8.9,9.2
				c6.6,2.1,2.5-2.7,7-1.5c4.4,1.2,7.8,5.3,11.2,1.2c3.5-4.2-1.7-5.5-3.2-13.2c-1-5.1,0.2-12.2,1.2-16.5c-7.2-2-18.9-6-26.5-8.7
				L80.7,707.9z"/>
			<path class="st13" d="M337.6,249c0.8-1.5,48.9-45.2,6-56.1s-94.1-12.1-88,17.9c6,29.9,34,44.7,35.8,43.7s26.7,8.6,34.9,4.6
				C334.6,255,337.6,249,337.6,249z"/>
			<path class="st12" d="M320.4,266.5c0,0-31,14.4-53.4,7.4s-40.4-35.8-39-55c1-13.9,34.5-46.3,34.5-46.3s-3.3,10.4,14.5,36.5
				S320.4,266.5,320.4,266.5z"/>
			<path class="st14" d="M247.2,188.8c0,0,1.8-61.8,43.9-75.5c31.1-10.1,54.1,4.9,75.3,22.8c32.2,27.2,29,50.8,24,72.1
				c-5.1,21.5-25.1,56.8-25.1,56.8s5.1-11.5-22-26.6c-12.4-6.9-32.3-5.4-57.2-14C261,215.9,247.2,188.8,247.2,188.8z"/>
			<path class="st12" d="M317.4,119.7c0,0-15.8,10.8-4.5,18.6s24.9-1.4,36.7,10.5c11.8,11.9,12.9,20.6,24.3,22.9
				c11.4,2.2,17-1.9,13.8-10.6c-3-8.1-7.2-18-29.9-33.5c-16.1-11-28.4-14.5-28.4-14.5L317.4,119.7z"/>
			<g>
				<path class="st2" d="M202.2,204.9c-38.4,0-69.6-31.2-69.6-69.6s31.2-69.6,69.6-69.6s69.6,31.2,69.6,69.6
					S240.6,204.9,202.2,204.9z M202.2,75.1c-33.1,0-60.1,27-60.1,60.1s27,60.1,60.1,60.1s60.1-27,60.1-60.1S235.3,75.1,202.2,75.1z"
					/>
			</g>
			<g>
				<path class="st2" d="M74.4,158.7c-6.1-2.3-8.2-6.1-8.8-9c-1.8-8.1,5.5-16.3,7-17.8l1.4-1.5h63.3v9.5H78.2
					c-1.9,2.5-3.8,5.8-3.4,7.6c0.2,1,1.7,1.7,2.8,2.1L74.4,158.7z"/>
			</g>
			<g>
				<path class="st8" d="M141.5,325.8c-51.5,33.1-58.6,48.2-37,138.5s89.3,127.9,108.9,121.8s19.6-15,19.6-15s23.3,55.7,61,58.7
					s40.6-19.6,40.6-19.6s21.1,32.9,85,19.8s76.8-43.2,70.7-53.7c-6-10.5-110.9-89.9-133.9-119.6c-23-29.8-51.5-103.9-71.5-118.1
					C245.7,310.7,193,292.7,141.5,325.8z"/>
				<path class="st9" d="M129.8,361.9c0,0-9,91.4,4.2,98.7c13.2,7.4,32.7-12.2,32.7-12.2s2,23.1,23.2,22.1s37.5-21.3,37.5-21.3
					s20.8,16.9,34.6,11.4c13.8-5.4,23.7-61.9,18.4-66.4s-3.8-7.1-7.6,8.5s-10.7,46.4-23.8,45.7c-13.1-0.8-16.9-12.8-19.9-23.3
					s-9-1.5-15,11.3s-15.6,33.9-27,20.3c-11.4-13.5-15.8-37.6-25.3-28.6s-6.5,24.1-16.2,24.1s-9.8-91.8-11.7-94.1
					C132.1,355.9,129.8,361.9,129.8,361.9z"/>
				<path class="st9" d="M348.3,479.8c0,0,19.1,26.5,22.4,41.1c3.2,14.6,3.5,32.1-11.2,32.1s-30.7-10.5-35.8-15c-5-4.5-6.5-7-6.5-7
					s14.5,23.4-4,25.2c-18.6,1.8-59.7-40.8-60.2-49.8s8.5-4.3,12.5,2.1s30.6,31.5,36.1,29.5s4.6-5.3-3.5-29.5s-9.1-39.7,4.5-24.2
					c13.5,15.6,31.6,49.4,46.2,51.3s13.5-6,3.5-27.1s-17.6-24-13-30.8S348.3,479.8,348.3,479.8z"/>
				<path class="st9" d="M368.4,581.6c1.7,1.9,43.1,25.8,61.2,9.9c18.1-15.9-7-40.9-12-47.4c-5-6.6-23.6-13.6-19.6-5.1
					s23.6,23.6,24.6,31.6s-2,16.1-12.5,15c-10.5-1-32.9-10.4-37.5-11.5S367,580,368.4,581.6z"/>
			</g>
		</g>
	</g>
	<g>
		<defs>
			<rect id="SVGID_5_" x="-5.6" width="491.2" height="808.5"/>
		</defs>
		<clipPath id="SVGID_6_">
			<use xlink:href="#SVGID_5_"  style="overflow:visible;"/>
		</clipPath>
		<rect x="-44.5" y="599.4" class="st15" width="557.8" height="111.3"/>
	</g>
	<g>
		<defs>
			<rect id="SVGID_7_" x="-5.6" width="491.2" height="808.5"/>
		</defs>
		<clipPath id="SVGID_8_">
			<use xlink:href="#SVGID_7_"  style="overflow:visible;"/>
		</clipPath>
	</g>
</g>
<g>
	<path class="st13" d="M343.1,460.5c-1.5-13.6-3.6-27.3-8.7-39.9c-5-12.5-13.3-23.8-24.3-29.6c-10.6-5.6-22.8-5.7-34.6-5.6
		c-12.2,0-24.3,0.1-36.5,0.1c-12.2,0-24.3-0.1-36.5-0.1c-11.7,0-23.9,0.1-34.6,5.6c-11,5.8-19.3,17.1-24.3,29.6
		c-5,12.5-7.2,26.2-8.7,39.9c-3.8,34.7-3.5,70,0.7,104.6c2.1,17.3,6.4,36.4,19.5,45.7c6.2,4.4,13.7,6,20.9,7.2
		c20.4,3.4,41.6,4.7,62.9,4.5c21.3,0.2,42.4-1.1,62.9-4.5c7.3-1.2,14.7-2.8,20.9-7.2c13.1-9.3,17.4-28.4,19.5-45.7
		C346.6,530.5,346.9,495.2,343.1,460.5z"/>
	<g>
		<path class="st10" d="M181.9,428.3c-2.3-4.4-6.9,1.1-6.9,1.1v27.3l9.2,6.5C184.2,463.2,184.7,433.8,181.9,428.3L181.9,428.3z"/>
		<path class="st10" d="M193.6,433.7l-3.3,149.7H226v-18.5c0,0-11.4,5.1-14.6,2.8c-13.2-9.4-8.6-52.6-1.9-61.9c2.4-3.3,9.6,0,9.6,0
			l1.2-20.2c0,0-10.2,1.6-12.5-0.6c-7.6-7.4-2.9-35.9,1.6-42.5c1.8-2.7,10-1.3,10-1.3l-1.2-13.2L193.6,433.7L193.6,433.7z"/>
		<path class="st10" d="M235.5,434.4l-1.1,149h52.8l2.3-22.6c0,0-35.3,15.6-38.7,3.4c-3.2-11.4-3.9-130.6-3.9-130.6L235.5,434.4
			L235.5,434.4z"/>
		<path class="st10" d="M260.9,435.5l2.1,115.1l29.8,0.5v-15.9c0,0-13.6,2.5-16.7-0.5c-3.6-3.4-4.2-32.6-0.4-35.7
			c1.9-1.6,10.5,0.6,10.5,0.6l-0.6-18.2c0,0-9.8,2.1-11.9,0c-4.2-4.1-5.6-29-1.7-32.4c2.1-1.8,11.3,0,11.3,0l3.4-16.8L260.9,435.5
			L260.9,435.5z"/>
		<path class="st10" d="M295.1,434.3v26.9l4.8,1c0,0,5.7-25.7,2.1-30.8C300.7,429.5,295.1,434.3,295.1,434.3L295.1,434.3z"/>
	</g>
	<g>
		<path class="st13" d="M118.9,646.9c0,3-2.3,4.9-5.9,4.9h-2.7v3.7h-3.1V642h5.9C116.7,642,118.9,643.9,118.9,646.9z M115.8,646.9
			c0-1.5-1-2.4-2.9-2.4h-2.6v4.7h2.6C114.8,649.2,115.8,648.4,115.8,646.9z"/>
		<path class="st13" d="M121.2,642h3.1v11h6.8v2.6h-9.9V642z"/>
		<path class="st13" d="M141.9,652.6h-6.3l-1.2,2.9h-3.2l6-13.6h3.1l6.1,13.6h-3.3L141.9,652.6z M140.9,650.2l-2.2-5.2l-2.2,5.2
			H140.9z"/>
		<path class="st13" d="M150,644.5h-4.3V642h11.8v2.6h-4.3v11H150V644.5z"/>
		<path class="st13" d="M167.4,652.6h-6.3l-1.2,2.9h-3.2l6-13.6h3.1l6.1,13.6h-3.3L167.4,652.6z M166.4,650.2l-2.2-5.2l-2.2,5.2
			H166.4z"/>
		<path class="st13" d="M176.5,644.5v3.6h6.3v2.5h-6.3v4.9h-3.1V642h10.3v2.5H176.5z"/>
		<path class="st13" d="M184.7,648.8c0-4,3.1-7,7.4-7c4.3,0,7.4,3,7.4,7c0,4.1-3.2,7-7.4,7C187.9,655.8,184.7,652.8,184.7,648.8z
			 M196.4,648.8c0-2.6-1.8-4.3-4.2-4.3c-2.4,0-4.2,1.8-4.2,4.3c0,2.6,1.8,4.3,4.2,4.3C194.6,653.1,196.4,651.3,196.4,648.8z"/>
		<path class="st13" d="M210.6,655.5l-2.6-3.8h-0.2h-2.7v3.8h-3.1V642h5.9c3.6,0,5.9,1.9,5.9,4.9c0,2-1,3.5-2.8,4.3l3,4.4H210.6z
			 M207.6,644.5h-2.6v4.7h2.6c1.9,0,2.9-0.9,2.9-2.4C210.5,645.4,209.5,644.5,207.6,644.5z"/>
		<path class="st13" d="M228.5,655.5l0-8.1l-4,6.7h-1.4l-4-6.5v8h-2.9V642h2.6l5.1,8.4l5-8.4h2.6l0,13.6H228.5z"/>
		<path class="st13" d="M243.6,652.6h-6.3l-1.2,2.9h-3.2l6-13.6h3.1l6.1,13.6h-3.3L243.6,652.6z M242.6,650.2l-2.2-5.2l-2.2,5.2
			H242.6z"/>
		<path class="st13" d="M265.5,653v2.5H255V642h10.3v2.5h-7.1v2.9h6.3v2.4h-6.3v3.1H265.5z"/>
		<path class="st13" d="M268,642h6.2c4.4,0,7.5,2.7,7.5,6.8c0,4.1-3,6.8-7.5,6.8H268V642z M274,653c2.7,0,4.5-1.6,4.5-4.2
			s-1.8-4.2-4.5-4.2h-2.9v8.4H274z"/>
		<path class="st13" d="M283.9,649.6V642h3.1v7.5c0,2.6,1.1,3.6,3,3.6c1.9,0,3-1.1,3-3.6V642h3.1v7.6c0,4-2.3,6.2-6.1,6.2
			S283.9,653.6,283.9,649.6z"/>
		<path class="st13" d="M298.4,648.8c0-4.1,3.1-7,7.4-7c2.3,0,4.3,0.9,5.6,2.4l-2,1.9c-0.9-1-2.1-1.6-3.4-1.6
			c-2.5,0-4.3,1.8-4.3,4.3c0,2.6,1.8,4.3,4.3,4.3c1.4,0,2.5-0.5,3.4-1.6l2,1.9c-1.3,1.6-3.2,2.4-5.6,2.4
			C301.6,655.8,298.4,652.8,298.4,648.8z"/>
		<path class="st13" d="M322.2,652.6h-6.3l-1.2,2.9h-3.2l6-13.6h3.1l6.1,13.6h-3.3L322.2,652.6z M321.2,650.2l-2.2-5.2l-2.2,5.2
			H321.2z"/>
		<path class="st13" d="M330.2,644.5h-4.3V642h11.8v2.6h-4.3v11h-3.1V644.5z"/>
		<path class="st13" d="M339.4,642h3.1v13.6h-3.1V642z"/>
		<path class="st13" d="M358.7,642l-5.9,13.6h-3.1l-5.9-13.6h3.4l4.1,9.7l4.2-9.7H358.7z"/>
		<path class="st13" d="M368.3,652.6H362l-1.2,2.9h-3.2l6-13.6h3.1l6.1,13.6h-3.3L368.3,652.6z M367.3,650.2l-2.2-5.2l-2.2,5.2
			H367.3z"/>
		<path class="st13" d="M180,672c0-4.1,3.1-7,7.4-7c2.3,0,4.3,0.9,5.6,2.4l-2,1.9c-0.9-1-2.1-1.6-3.4-1.6c-2.5,0-4.3,1.8-4.3,4.3
			c0,2.6,1.8,4.3,4.3,4.3c1.4,0,2.5-0.5,3.4-1.6l2,1.9c-1.3,1.6-3.2,2.4-5.6,2.4C183.2,679,180,676.1,180,672z"/>
		<path class="st13" d="M207.5,665.2v13.6h-3.1v-5.6h-6.2v5.6h-3.1v-13.6h3.1v5.3h6.2v-5.3H207.5z"/>
		<path class="st13" d="M219.7,675.9h-6.3l-1.2,2.9H209l6-13.6h3.1l6.1,13.6h-3.3L219.7,675.9z M218.7,673.5l-2.2-5.2l-2.2,5.2
			H218.7z"/>
		<path class="st13" d="M240.1,680.3c-0.9,1.1-2.2,1.7-3.7,1.7c-2,0-3.4-0.7-5.5-2.9c-3.7-0.5-6.3-3.3-6.3-7c0-4,3.1-7,7.4-7
			c4.3,0,7.4,3,7.4,7c0,3.2-2,5.7-4.8,6.6c0.7,0.7,1.2,0.9,1.9,0.9c0.8,0,1.6-0.3,2.2-1L240.1,680.3z M232,676.4
			c2.4,0,4.2-1.8,4.2-4.3c0-2.6-1.8-4.3-4.2-4.3s-4.2,1.8-4.2,4.3C227.7,674.6,229.5,676.4,232,676.4z"/>
		<path class="st13" d="M241.6,672.8v-7.6h3.1v7.5c0,2.6,1.1,3.6,3,3.6c1.9,0,3-1.1,3-3.6v-7.5h3.1v7.6c0,4-2.3,6.2-6.1,6.2
			C243.9,679,241.6,676.8,241.6,672.8z"/>
		<path class="st13" d="M267.5,676.3v2.5H257v-13.6h10.3v2.5h-7.1v2.9h6.3v2.4h-6.3v3.1H267.5z"/>
		<path class="st13" d="M282.5,665.2v13.6h-2.6l-6.8-8.2v8.2H270v-13.6h2.6l6.7,8.2v-8.2H282.5z M274.1,664.1h-1.5
			c0-1.7,0.9-2.8,2.3-2.8c1.3,0,2,1.2,2.7,1.2c0.5,0,0.9-0.4,0.9-1h1.5c0,1.7-0.9,2.8-2.3,2.8c-1.3,0-2-1.2-2.7-1.2
			C274.5,663,274.1,663.4,274.1,664.1z"/>
		<path class="st13" d="M294.6,675.9h-6.3l-1.2,2.9h-3.2l6-13.6h3.1l6.1,13.6h-3.3L294.6,675.9z M293.6,673.5l-2.2-5.2l-2.2,5.2
			H293.6z"/>
	</g>
</g>
</svg>
